HIERARCHY
ROOT Hips
{
	OFFSET 0.00000 0.00000 0.00000
	CHANNELS 6 Xposition Yposition Zposition Zrotation Yrotation Xrotation 
	JOINT LHipJoint
	{
		OFFSET 0 0 0
		CHANNELS 3 Zrotation Yrotation Xrotation
		JOINT LeftUpLeg
		{
			OFFSET 1.41496 -1.84582 0.78394
			CHANNELS 3 Zrotation Yrotation Xrotation
			JOINT LeftLeg
			{
				OFFSET 2.58040 -7.08960 0.00000
				CHANNELS 3 Zrotation Yrotation Xrotation
				JOINT LeftFoot
				{
					OFFSET 2.64719 -7.27309 0.00000
					CHANNELS 3 Zrotation Yrotation Xrotation
					JOINT LeftToeBase
					{
						OFFSET 0.20718 -0.56921 2.20259
						CHANNELS 3 Zrotation Yrotation Xrotation
						End Site
						{
							OFFSET 0.00000 -0.00000 1.14243
						}
					}
				}
			}
		}
	}
	JOINT RHipJoint
	{
		OFFSET 0 0 0
		CHANNELS 3 Zrotation Yrotation Xrotation
		JOINT RightUpLeg
		{
			OFFSET -1.40551 -1.84582 0.78394
			CHANNELS 3 Zrotation Yrotation Xrotation
			JOINT RightLeg
			{
				OFFSET -2.56572 -7.04926 0.00000
				CHANNELS 3 Zrotation Yrotation Xrotation
				JOINT RightFoot
				{
					OFFSET -2.57974 -7.08778 0.00000
					CHANNELS 3 Zrotation Yrotation Xrotation
					JOINT RightToeBase
					{
						OFFSET -0.26704 -0.73369 2.20815
						CHANNELS 3 Zrotation Yrotation Xrotation
						End Site
						{
							OFFSET -0.00000 -0.00000 1.16246
						}
					}
				}
			}
		}
	}
	JOINT LowerBack
	{
		OFFSET 0 0 0
		CHANNELS 3 Zrotation Yrotation Xrotation
		JOINT Spine
		{
			OFFSET -0.04690 2.05196 -0.07017
			CHANNELS 3 Zrotation Yrotation Xrotation
			JOINT Spine1
			{
				OFFSET 0.04085 2.05260 0.00800
				CHANNELS 3 Zrotation Yrotation Xrotation
				JOINT Neck
				{
					OFFSET 0 0 0
					CHANNELS 3 Zrotation Yrotation Xrotation
					JOINT Neck1
					{
						OFFSET -0.03582 1.80995 0.19301
						CHANNELS 3 Zrotation Yrotation Xrotation
						JOINT Head
						{
							OFFSET 0.00952 1.80195 -0.36389
							CHANNELS 3 Zrotation Yrotation Xrotation
							End Site
							{
								OFFSET 0.00392 1.85062 -0.14494
							}
						}
					}
				}
				JOINT LeftShoulder
				{
					OFFSET 0 0 0
					CHANNELS 3 Zrotation Yrotation Xrotation
					JOINT LeftArm
					{
						OFFSET 3.55224 1.39726 -0.13667
						CHANNELS 3 Zrotation Yrotation Xrotation
						JOINT LeftForeArm
						{
							OFFSET 5.14507 -0.00000 -0.00000
							CHANNELS 3 Zrotation Yrotation Xrotation
							JOINT LeftHand
							{
								OFFSET 3.50646 -0.00000 0.00000
								CHANNELS 3 Zrotation Yrotation Xrotation
								JOINT LeftFingerBase
								{
									OFFSET 0 0 0
									CHANNELS 3 Zrotation Yrotation Xrotation
									JOINT LeftHandIndex1
									{
										OFFSET 0.62997 -0.00000 0.00000
										CHANNELS 3 Zrotation Yrotation Xrotation
										End Site
										{
											OFFSET 0.50790 -0.00000 0.00000
										}
									}
								}
								JOINT LThumb
								{
									OFFSET 0 0 0
									CHANNELS 3 Zrotation Yrotation Xrotation
									End Site
									{
										OFFSET 0.51565 -0.00000 0.51565
									}
								}
							}
						}
					}
				}
				JOINT RightShoulder
				{
					OFFSET 0 0 0
					CHANNELS 3 Zrotation Yrotation Xrotation
					JOINT RightArm
					{
						OFFSET -3.06467 1.61290 -0.28813
						CHANNELS 3 Zrotation Yrotation Xrotation
						JOINT RightForeArm
						{
							OFFSET -5.23200 -0.00000 -0.00000
							CHANNELS 3 Zrotation Yrotation Xrotation
							JOINT RightHand
							{
								OFFSET -3.65641 -0.00000 0.00000
								CHANNELS 3 Zrotation Yrotation Xrotation
								JOINT RightFingerBase
								{
									OFFSET 0 0 0
									CHANNELS 3 Zrotation Yrotation Xrotation
									JOINT RightHandIndex1
									{
										OFFSET -0.65681 -0.00000 0.00000
										CHANNELS 3 Zrotation Yrotation Xrotation
										End Site
										{
											OFFSET -0.52953 -0.00000 0.00000
										}
									}
								}
								JOINT RThumb
								{
									OFFSET 0 0 0
									CHANNELS 3 Zrotation Yrotation Xrotation
									End Site
									{
										OFFSET -0.53762 -0.00000 0.53762
									}
								}
							}
						}
					}
				}
			}
		}
	}
}
MOTION
Frames: 12
Frame Time: .0083333
-1.2813 16.4251 -43.7217 0 0 0 0 0 0 -21 0 0 0 0 0 0 0 0 0 0 0 0 0 0 21 0 0 0 0 0 0 0 0 0 0 0 0 0 0 0 0 0 0 0 0 0 0 -16 0 0 21 0 0 11 0 0 0 -8 0 0 0 0 0 0 0 0 0 0 0 0 0 0 0 0 0 0 0 0 8 0 0 0 0 0 0 0 0 0 0 0 0 0 0 0 0 0
-1.2813 16.4251 -43.7217 -8.8508 -4.9821 24.8959 0.0000 0.0000 0.0000 -8.4234 -8.9103 -80.4299 8.5184 16.4876 54.4090 -0.4488 -12.4838 0.1614 1.3794 -7.4319 -21.0015 0.0000 0.0000 0.0000 23.3388 -0.1788 13.6591 -1.5465 -7.8497 22.2584 -1.4443 -15.0733 22.4924 -3.2525 11.0930 -32.5942 5.2026 3.8476 15.4057 1.4619 6.0663 1.0801 -2.6304 2.7909 -7.0826 -1.8279 -2.7846 -19.5621 0.7160 -3.3420 6.0181 0.1925 -1.6347 4.9727 0.0000 0.0000 0.0000 -80.2029 55.7037 33.2385 95.1009 -59.9015 -64.4160 -0.0000 0.0000 -22.5644 24.6009 -10.1310 -4.6044 -7.1250 0.0000 -0.0000 -1.7121 18.8642 1.0670 0.0000 0.0000 0.0000 75.1239 11.3057 44.1457 -124.2690 55.0607 -89.1857 0.0000 -0.0000 -6.1391 -27.6475 1.1715 -0.6136 7.1250 -0.0000 -0.0000 -0.8375 -28.6569 -0.3333
-1.2887 16.3921 -43.2298 -9.0114 -4.7180 24.6417 0.0000 0.0000 0.0000 -9.1516 -8.6568 -79.2691 8.8379 16.7022 55.5277 -0.4587 -12.5461 0.3759 1.4480 -7.6066 -21.5256 0.0000 0.0000 0.0000 23.5094 -0.2840 11.6689 -2.2962 -9.4575 27.2373 -0.8318 -16.9757 18.8675 -2.1172 9.1060 -26.1274 5.1859 3.8811 15.6215 1.4811 6.1161 1.1845 -2.6236 2.8160 -7.0897 -1.8912 -2.9539 -19.6121 0.8856 -3.5701 5.9838 0.2333 -1.7355 4.9765 -0.0000 -0.0000 0.0000 -82.2120 53.9684 31.6770 94.5765 -59.9207 -63.9623 -0.0000 0.0000 -22.3449 24.5093 -9.9934 -4.5237 -7.1250 0.0000 -0.0000 -1.7707 19.0225 1.0974 -0.0000 -0.0000 0.0000 76.3028 10.2271 43.6458 -120.6292 56.1399 -86.1819 0.0000 -0.0000 -6.4306 -27.5433 0.6307 -0.3289 7.1250 -0.0000 -0.0000 -0.7644 -29.2681 -0.2931
-1.2960 16.3701 -42.7388 -8.9501 -4.1924 24.4615 0.0000 0.0000 0.0000 -10.0416 -8.6672 -78.0373 9.2452 16.9629 56.9342 -0.5534 -13.8180 0.2250 0.1781 -2.7183 -7.4954 0.0000 0.0000 0.0000 23.6594 -0.4862 8.9614 -3.2154 -11.0358 32.4006 -0.5654 -17.2423 16.9839 -2.1744 9.2203 -26.4868 5.0684 3.7993 15.8541 1.5250 6.0091 1.1475 -2.5124 2.7603 -7.2836 -2.1000 -3.0731 -19.4727 1.1266 -3.7069 5.9199 0.3312 -1.7908 4.9452 0.0000 -0.0000 0.0000 -84.1789 52.1014 30.2287 93.4184 -59.9558 -62.9599 -0.0000 0.0000 -21.5238 24.2493 -10.1246 -4.5275 -7.1250 0.0000 -0.0000 -1.9610 18.9023 1.2207 0.0000 -0.0000 0.0000 77.3885 8.9283 43.1360 -116.5238 57.1673 -82.7519 0.0000 -0.0000 -6.8655 -27.6322 0.0267 -0.0140 7.1250 -0.0000 -0.0000 -0.8411 -29.9491 -0.3089
-1.3052 16.3391 -42.2470 -8.8399 -3.6952 24.2223 0.0000 0.0000 0.0000 -11.1272 -8.6022 -76.7044 9.6777 17.2246 58.4057 -0.8413 -17.5164 -1.1776 0.0009 0.1893 0.5202 0.0000 0.0000 0.0000 23.6974 -0.7528 6.5999 -4.1615 -12.3723 37.0620 -0.3168 -17.3800 15.0490 -2.9003 10.5319 -30.7169 4.9715 3.7210 16.0217 1.4719 5.8961 1.1395 -2.5064 2.7034 -7.3971 -2.1742 -3.1974 -19.2410 1.4250 -3.8914 5.7501 0.4234 -1.8629 4.8666 -0.0000 0.0000 0.0000 -85.6796 49.9011 29.1885 91.8080 -59.9876 -61.5657 -0.0000 0.0000 -20.3383 24.2923 -9.9606 -4.4641 -7.1250 0.0000 -0.0000 -1.9233 19.0771 1.1897 -0.0000 0.0000 0.0000 78.6656 7.5116 42.4515 -111.9252 58.1033 -78.8668 0.0000 -0.0000 -7.5146 -27.7346 -0.5817 0.3058 7.1250 -0.0000 -0.0000 -0.9270 -30.6362 -0.3253
-1.3022 16.3336 -41.7547 -7.8565 -3.0087 23.9097 0.0000 0.0000 0.0000 -12.6462 -9.3368 -74.9690 10.1660 17.5022 60.0418 -0.6911 -17.4699 -3.9443 0.0948 1.9854 5.4652 0.0000 0.0000 0.0000 22.8581 -1.3519 3.5676 -5.2334 -13.6419 41.8214 -0.0925 -17.0363 12.8571 -2.6646 10.1313 -29.4030 4.3938 3.4939 16.3568 1.1810 5.4917 1.1058 -2.4389 2.5124 -7.6717 -2.1658 -3.3238 -19.1704 1.7271 -4.0922 5.4284 0.5014 -1.9409 4.7643 -0.0000 -0.0000 0.0000 -86.5651 47.0307 28.7075 88.9667 -59.9960 -59.1051 -0.0000 0.0000 -19.5016 24.8520 -9.7700 -4.4940 -7.1250 0.0000 -0.0000 -1.5169 19.2369 0.9328 -0.0000 -0.0000 0.0000 79.9396 5.9514 41.6383 -106.3903 58.9602 -74.1449 0.0000 -0.0000 -8.5102 -28.2790 -0.7739 0.4163 7.1250 -0.0000 -0.0000 -1.3612 -30.8569 -0.4705
-1.3057 16.3024 -41.2704 -7.1397 -2.4460 23.6298 0.0000 0.0000 0.0000 -13.9629 -9.7492 -73.4128 10.6246 17.7464 61.5563 -0.5922 -17.9010 -6.0374 0.3523 3.8137 10.5532 0.0000 0.0000 0.0000 22.2197 -1.7754 0.9103 -6.3850 -14.7913 46.5080 0.1279 -16.9652 10.6264 -2.6168 10.0472 -29.1297 3.8780 3.3407 16.6715 0.9837 5.1957 1.0946 -2.3222 2.3761 -7.9041 -2.2041 -3.4365 -19.0145 1.9904 -4.2603 5.1417 0.5786 -2.0080 4.6604 -0.0000 -0.0000 0.0000 -87.6156 44.4513 28.1579 86.7131 -59.9591 -57.1539 -0.0000 0.0000 -18.9052 25.2387 -9.5552 -4.4743 -7.1250 0.0000 -0.0000 -1.2315 19.4389 0.7516 -0.0000 -0.0000 0.0000 81.1855 4.5635 40.7027 -101.0830 59.5307 -69.5830 0.0000 -0.0000 -9.3589 -28.4665 -1.1099 0.6018 7.1250 -0.0000 -0.0000 -1.5141 -31.2402 -0.5095
-1.3087 16.2606 -40.7924 -6.1980 -1.8797 23.3343 0.0000 0.0000 0.0000 -15.4247 -10.3033 -71.7836 11.0788 17.9735 63.0374 -0.4058 -17.8712 -8.3601 0.6675 5.2249 14.5511 0.0000 0.0000 0.0000 21.3060 -2.2257 -1.9010 -7.6376 -15.8461 51.2464 0.3060 -16.6350 8.3306 -2.5819 9.9854 -28.9294 3.1860 3.1679 17.0230 0.7350 4.8326 1.0884 -2.1456 2.2135 -8.1620 -2.2187 -3.5308 -18.8146 2.2297 -4.4052 4.7768 0.6483 -2.0664 4.5244 -0.0000 0.0000 0.0000 -88.5283 41.6799 27.7776 84.1316 -59.8695 -54.9201 -0.0000 0.0000 -18.5251 25.7851 -9.3000 -4.4641 -7.1250 0.0000 -0.0000 -0.8292 19.6729 0.5017 -0.0000 0.0000 0.0000 82.4298 3.1812 39.6488 -95.5071 59.8851 -64.7674 0.0000 -0.0000 -10.3100 -28.6858 -1.3660 0.7473 7.1250 -0.0000 -0.0000 -1.6920 -31.5341 -0.5574
-1.3103 16.2161 -40.3188 -5.0753 -1.3403 23.0256 0.0000 0.0000 0.0000 -17.0186 -10.9463 -70.0135 11.4922 18.1676 64.3699 -0.1515 -17.4206 -10.7437 0.9118 6.0847 17.0303 0.0000 0.0000 0.0000 20.1295 -2.6793 -4.8151 -8.9552 -16.7788 55.9352 0.4450 -16.1069 5.9115 -2.5159 9.8668 -28.5466 2.3346 2.9902 17.4091 0.4513 4.4227 1.0976 -1.9027 2.0355 -8.4284 -2.2125 -3.6046 -18.5838 2.4265 -4.5212 4.3470 0.7053 -2.1144 4.3618 0.0000 -0.0000 0.0000 -89.3566 38.7180 27.5291 81.2623 -59.7095 -52.4403 -0.0000 0.0000 -18.4382 26.4717 -9.0479 -4.4777 -7.1250 0.0000 -0.0000 -0.3252 19.8928 0.1952 0.0000 -0.0000 0.0000 83.6455 1.8303 38.4839 -89.8050 59.9999 -59.8311 0.0000 -0.0000 -11.3821 -28.9413 -1.5639 0.8646 7.1250 -0.0000 -0.0000 -1.8990 -31.7631 -0.6152
-1.3093 16.1698 -39.8493 -3.8373 -0.8455 22.7155 0.0000 0.0000 0.0000 -18.6765 -11.6459 -68.1124 11.8767 18.3381 65.5976 0.1427 -16.7004 -13.1087 1.1061 6.6823 18.7775 0.0000 0.0000 0.0000 18.7327 -3.0965 -7.8682 -10.3359 -17.5944 60.6051 0.5406 -15.4103 3.3585 -2.4141 9.6800 -27.9465 1.3692 2.8178 17.8217 0.1593 3.9876 1.1195 -1.5936 1.8520 -8.6958 -2.2006 -3.6576 -18.3321 2.5663 -4.6035 3.8834 0.7476 -2.1507 4.1838 0.0000 -0.0000 0.0000 -90.1556 35.5812 27.3820 78.1660 -59.4642 -49.7699 -0.0000 0.0000 -18.6352 27.2394 -8.8660 -4.5365 -7.1250 0.0000 -0.0000 0.2344 20.0289 -0.1400 0.0000 -0.0000 0.0000 84.7884 0.5123 37.2219 -84.1604 59.8708 -54.9450 0.0000 -0.0000 -12.6203 -29.2328 -1.7455 0.9766 7.1250 -0.0000 -0.0000 -2.1356 -31.9753 -0.6811
-1.3046 16.1216 -39.3839 -2.5776 -0.4202 22.4255 0.0000 0.0000 0.0000 -20.3238 -12.3445 -66.1015 12.2203 18.4822 66.6854 0.4544 -15.9394 -15.4497 1.2439 7.0718 19.9283 0.0000 0.0000 0.0000 17.1910 -3.4353 -11.0628 -11.7494 -18.2827 65.1921 0.5850 -14.5743 0.7467 -2.3421 9.5449 -27.5152 0.3623 2.6623 18.2397 -0.1154 3.5576 1.1437 -1.2372 1.6757 -8.9578 -2.2069 -3.6907 -18.0818 2.6615 -4.6504 3.4363 0.7821 -2.1730 4.0102 -0.0000 0.0000 0.0000 -90.9542 32.2941 27.3215 74.9338 -59.1247 -46.9906 -0.0000 0.0000 -19.0206 28.0105 -8.8204 -4.6632 -7.1250 0.0000 -0.0000 0.7891 20.0117 -0.4714 -0.0000 0.0000 0.0000 85.8185 -0.7833 35.8880 -78.7225 59.5139 -50.2493 0.0000 -0.0000 -14.0445 -29.5662 -1.9302 1.0947 7.1250 -0.0000 -0.0000 -2.4068 -32.1926 -0.7551
-1.2946 16.0715 -38.9227 -1.3918 -0.0747 22.1778 0.0000 0.0000 0.0000 -21.8742 -13.0003 -64.0162 12.5208 18.6022 67.6303 0.7700 -15.3221 -17.7464 1.3569 7.3736 20.8271 0.0000 0.0000 0.0000 15.5956 -3.6500 -14.4176 -13.1684 -18.8421 69.6479 0.5800 -13.6810 -1.8514 -2.2995 9.4638 -27.2573 -0.5981 2.5266 18.6395 -0.3510 3.1567 1.1548 -0.8658 1.5152 -9.2130 -2.2467 -3.7096 -17.8546 2.7287 -4.6690 3.0528 0.8147 -2.1833 3.8596 0.0000 -0.0000 0.0000 -91.7597 28.9003 27.3491 71.7023 -58.6963 -44.2231 -0.0000 0.0000 -19.4286 28.7079 -8.9581 -4.8743 -7.1250 0.0000 -0.0000 1.2779 19.7923 -0.7699 0.0000 -0.0000 0.0000 86.7046 -2.0831 34.5082 -73.6401 58.9641 -45.8812 0.0000 -0.0000 -15.6545 -29.9792 -2.1515 1.2407 7.1250 -0.0000 -0.0000 -2.7439 -32.4552 -0.8437
